<svg width="163" height="19" viewBox="0 0 163 19" fill="none" xmlns="http://www.w3.org/2000/svg">
<path d="M23.207 1.702V2.162C22.8697 2.31533 22.5093 2.61433 22.126 3.059C21.7427 3.50367 21.413 4.19367 21.137 5.129L17.158 18.009C17.0047 17.9937 16.8437 17.986 16.675 17.986C16.5063 17.9707 16.33 17.963 16.146 17.963C15.9927 17.963 15.824 17.9707 15.64 17.986C15.4713 17.986 15.3103 17.9937 15.157 18.009L10.327 3.312C10.189 2.88267 10.0127 2.59133 9.798 2.438C9.59867 2.26933 9.36867 2.17733 9.108 2.162V1.702C9.58334 1.71734 10.143 1.73267 10.787 1.748C11.431 1.76333 12.0827 1.771 12.742 1.771C13.432 1.771 14.0837 1.76333 14.697 1.748C15.3103 1.73267 15.8087 1.71734 16.192 1.702V2.162C15.7167 2.17733 15.3487 2.231 15.088 2.323C14.8273 2.415 14.674 2.599 14.628 2.875C14.5973 3.13567 14.674 3.542 14.858 4.094L18.055 13.869L17.457 15.042L19.918 7.199C20.3167 5.94167 20.5083 4.95267 20.493 4.232C20.4777 3.496 20.2937 2.97467 19.941 2.668C19.6037 2.346 19.1207 2.17733 18.492 2.162V1.702C19.0593 1.71734 19.5653 1.73267 20.01 1.748C20.47 1.76333 20.9453 1.771 21.436 1.771C21.758 1.771 22.0723 1.76333 22.379 1.748C22.701 1.73267 22.977 1.71734 23.207 1.702ZM6.693 1.702V2.162C6.40167 2.208 6.20234 2.33067 6.095 2.53C5.98767 2.72933 5.94934 2.97467 5.98 3.266C6.026 3.542 6.095 3.818 6.187 4.094L9.66 14.099L9.039 14.996L11.891 6.969L12.213 7.613L8.648 18.009C8.49467 17.9937 8.326 17.986 8.142 17.986C7.97334 17.9707 7.80467 17.963 7.636 17.963C7.46734 17.963 7.29867 17.9707 7.13 17.986C6.96134 17.986 6.80034 17.9937 6.647 18.009L1.403 3.634C1.20367 3.082 0.97367 2.70633 0.713004 2.507C0.452337 2.29233 0.21467 2.17733 3.59491e-06 2.162V1.702C0.49067 1.71734 1.081 1.73267 1.771 1.748C2.461 1.76333 3.12034 1.771 3.749 1.771C4.37767 1.771 4.945 1.76333 5.451 1.748C5.957 1.73267 6.371 1.71734 6.693 1.702ZM27.9879 4.76837e-07V7.682C28.3713 6.97667 28.8773 6.47833 29.5059 6.187C30.1499 5.89567 30.8859 5.75 31.7139 5.75C32.3886 5.75 32.9253 5.83434 33.3239 6.003C33.7379 6.17167 34.0523 6.38633 34.2669 6.647C34.5123 6.93833 34.6886 7.314 34.7959 7.774C34.9033 8.234 34.9569 8.855 34.9569 9.637V15.847C34.9569 16.491 35.0566 16.928 35.256 17.158C35.4706 17.388 35.831 17.503 36.3369 17.503V17.986C36.0456 17.9707 35.5933 17.9553 34.9799 17.94C34.3819 17.9093 33.7916 17.894 33.2089 17.894C32.5956 17.894 31.9976 17.9093 31.4149 17.94C30.8323 17.9553 30.3876 17.9707 30.0809 17.986V17.503C30.5103 17.503 30.8093 17.388 30.9779 17.158C31.1466 16.928 31.2309 16.491 31.2309 15.847V8.533C31.2309 8.18033 31.1926 7.88133 31.1159 7.636C31.0393 7.37534 30.9089 7.18367 30.7249 7.061C30.5563 6.923 30.3033 6.854 29.9659 6.854C29.6133 6.854 29.2836 6.946 28.9769 7.13C28.6856 7.29867 28.4479 7.55167 28.2639 7.889C28.0799 8.211 27.9879 8.58667 27.9879 9.016V15.847C27.9879 16.491 28.0723 16.928 28.2409 17.158C28.4249 17.388 28.7239 17.503 29.1379 17.503V17.986C28.8619 17.9707 28.4479 17.9553 27.8959 17.94C27.3439 17.9093 26.7766 17.894 26.1939 17.894C25.5806 17.894 24.9519 17.9093 24.3079 17.94C23.6793 17.9553 23.2039 17.9707 22.8819 17.986V17.503C23.3879 17.503 23.7406 17.388 23.9399 17.158C24.1546 16.928 24.2619 16.491 24.2619 15.847V2.76C24.2619 2.07 24.1623 1.564 23.9629 1.242C23.7789 0.904667 23.4186 0.736001 22.8819 0.736001V0.253001C23.3726 0.299002 23.8479 0.322002 24.3079 0.322002C25.0133 0.322002 25.6726 0.299002 26.2859 0.253001C26.8993 0.191668 27.4666 0.107334 27.9879 4.76837e-07ZM40.2293 0.069001C40.95 0.069001 41.5097 0.230001 41.9083 0.552002C42.3223 0.874001 42.5293 1.34167 42.5293 1.955C42.5293 2.56834 42.3223 3.036 41.9083 3.358C41.5097 3.68 40.95 3.841 40.2293 3.841C39.5087 3.841 38.9413 3.68 38.5273 3.358C38.1287 3.036 37.9293 2.56834 37.9293 1.955C37.9293 1.34167 38.1287 0.874001 38.5273 0.552002C38.9413 0.230001 39.5087 0.069001 40.2293 0.069001ZM42.2533 5.819V15.847C42.2533 16.491 42.353 16.928 42.5523 17.158C42.767 17.388 43.1273 17.503 43.6333 17.503V17.986C43.3267 17.9707 42.8743 17.9553 42.2763 17.94C41.6783 17.9093 41.0727 17.894 40.4593 17.894C39.846 17.894 39.2173 17.9093 38.5733 17.94C37.9447 17.9553 37.4693 17.9707 37.1473 17.986V17.503C37.6533 17.503 38.006 17.388 38.2053 17.158C38.42 16.928 38.5273 16.491 38.5273 15.847V8.579C38.5273 7.889 38.4277 7.383 38.2283 7.061C38.029 6.72367 37.6687 6.555 37.1473 6.555V6.072C37.638 6.118 38.1133 6.141 38.5733 6.141C39.2633 6.141 39.915 6.118 40.5283 6.072C41.157 6.01067 41.732 5.92633 42.2533 5.819ZM49.2509 5.75C49.9256 5.75 50.5082 5.82667 50.9989 5.98C51.4896 6.13333 51.8499 6.279 52.0799 6.417C52.6166 6.75433 52.9386 6.53967 53.0459 5.773H53.5289C53.4982 6.21767 53.4752 6.75433 53.4599 7.383C53.4446 7.99633 53.4369 8.82433 53.4369 9.867H52.9539C52.8926 9.29967 52.7546 8.74 52.5399 8.188C52.3406 7.636 52.0416 7.18367 51.6429 6.831C51.2442 6.463 50.7229 6.279 50.0789 6.279C49.6649 6.279 49.3122 6.40167 49.0209 6.647C48.7449 6.89233 48.6069 7.22967 48.6069 7.659C48.6069 8.119 48.7449 8.52533 49.0209 8.878C49.2969 9.23067 49.6496 9.568 50.0789 9.89C50.5236 10.212 50.9682 10.557 51.4129 10.925C51.9036 11.293 52.3406 11.6687 52.7239 12.052C53.1226 12.42 53.4369 12.8263 53.6669 13.271C53.9122 13.7003 54.0349 14.2217 54.0349 14.835C54.0349 15.525 53.8279 16.1307 53.4139 16.652C52.9999 17.1733 52.4556 17.5797 51.7809 17.871C51.1062 18.1623 50.3549 18.308 49.5269 18.308C49.0209 18.308 48.5762 18.2543 48.1929 18.147C47.8249 18.055 47.5182 17.9323 47.2729 17.779C47.0429 17.6717 46.8359 17.5797 46.6519 17.503C46.4832 17.4263 46.3146 17.3727 46.1459 17.342C45.9926 17.3267 45.8622 17.3957 45.7549 17.549C45.6476 17.7023 45.5632 17.9017 45.5019 18.147H45.0189C45.0496 17.6563 45.0726 17.0583 45.0879 16.353C45.1032 15.6477 45.1109 14.7123 45.1109 13.547H45.5939C45.6859 14.375 45.8546 15.1033 46.0999 15.732C46.3606 16.3607 46.7056 16.859 47.1349 17.227C47.5642 17.5797 48.0702 17.756 48.6529 17.756C48.9136 17.756 49.1512 17.71 49.3659 17.618C49.5959 17.5107 49.7799 17.3497 49.9179 17.135C50.0712 16.9203 50.1479 16.6443 50.1479 16.307C50.1479 15.6323 49.9332 15.0727 49.5039 14.628C49.0746 14.168 48.5456 13.6697 47.9169 13.133C47.4262 12.719 46.9662 12.3127 46.5369 11.914C46.1229 11.5153 45.7779 11.0783 45.5019 10.603C45.2412 10.1277 45.1109 9.591 45.1109 8.993C45.1109 8.303 45.3026 7.72033 45.6859 7.245C46.0846 6.75434 46.5982 6.38633 47.2269 6.141C47.8556 5.88033 48.5302 5.75 49.2509 5.75ZM60.3092 4.76837e-07V15.847C60.3092 16.491 60.4089 16.928 60.6082 17.158C60.8076 17.388 61.1526 17.503 61.6432 17.503V17.986C61.3519 17.9707 60.9149 17.9553 60.3322 17.94C59.7496 17.9093 59.1516 17.894 58.5382 17.894C57.9096 17.894 57.2732 17.9093 56.6292 17.94C56.0006 17.9553 55.5252 17.9707 55.2032 17.986V17.503C55.7092 17.503 56.0619 17.388 56.2612 17.158C56.4759 16.928 56.5832 16.491 56.5832 15.847V2.76C56.5832 2.07 56.4836 1.564 56.2842 1.242C56.1002 0.904667 55.7399 0.736001 55.2032 0.736001V0.253001C55.6939 0.299002 56.1692 0.322002 56.6292 0.322002C57.3346 0.322002 57.9939 0.299002 58.6072 0.253001C59.2206 0.191668 59.7879 0.107334 60.3092 4.76837e-07ZM67.8992 6.072V6.532C67.3779 6.65467 66.8566 6.89234 66.3352 7.245C65.8139 7.58233 65.2849 8.01933 64.7482 8.556L63.4602 9.867L63.6442 9.499L67.4622 16.307C67.6156 16.5677 67.7689 16.8053 67.9222 17.02C68.0909 17.2347 68.2902 17.3957 68.5202 17.503V17.986C68.2902 17.9707 67.9222 17.9553 67.4162 17.94C66.9256 17.9093 66.4272 17.894 65.9212 17.894C65.3386 17.894 64.7482 17.9093 64.1502 17.94C63.5676 17.9553 63.1229 17.9707 62.8162 17.986V17.503C63.1229 17.503 63.3299 17.434 63.4372 17.296C63.5446 17.158 63.5292 16.9663 63.3912 16.721L61.2522 12.535C61.1142 12.2743 60.9609 12.1057 60.7922 12.029C60.6389 11.9523 60.4472 11.914 60.2172 11.914V11.477C60.4779 11.4617 60.7079 11.4233 60.9072 11.362C61.1219 11.3007 61.3212 11.1857 61.5052 11.017L63.2532 9.338C63.7899 8.832 64.0582 8.37967 64.0582 7.981C64.0736 7.567 63.9049 7.22967 63.5522 6.969C63.2149 6.70833 62.7779 6.56267 62.2412 6.532V6.072C62.6706 6.08733 63.1382 6.10267 63.6442 6.118C64.1656 6.13333 64.6102 6.141 64.9782 6.141C65.2849 6.141 65.6222 6.141 65.9902 6.141C66.3736 6.12567 66.7339 6.118 67.0712 6.118C67.4239 6.10267 67.6999 6.08733 67.8992 6.072ZM74.5737 5.75C75.9231 5.75 76.9811 6.14867 77.7477 6.946C78.5144 7.74333 78.8977 9.05433 78.8977 10.879H71.5147L71.4917 10.442H75.7697C75.8004 9.69067 75.7697 9.00067 75.6777 8.372C75.5857 7.728 75.4324 7.21434 75.2177 6.831C75.0184 6.44767 74.7501 6.256 74.4127 6.256C73.9527 6.256 73.5617 6.58567 73.2397 7.245C72.9177 7.90433 72.7184 9.02367 72.6417 10.603L72.7337 10.764C72.7031 10.9327 72.6877 11.109 72.6877 11.293C72.6877 11.4617 72.6877 11.6457 72.6877 11.845C72.6877 12.903 72.8257 13.7463 73.1017 14.375C73.3931 15.0037 73.7534 15.4483 74.1827 15.709C74.6121 15.9697 75.0567 16.1 75.5167 16.1C75.7774 16.1 76.0687 16.0617 76.3907 15.985C76.7127 15.9083 77.0501 15.7473 77.4027 15.502C77.7554 15.2567 78.0927 14.8963 78.4147 14.421L78.8057 14.559C78.6371 15.157 78.3457 15.7473 77.9317 16.33C77.5331 16.8973 77.0194 17.3727 76.3907 17.756C75.7621 18.124 75.0031 18.308 74.1137 18.308C73.1017 18.308 72.1971 18.101 71.3997 17.687C70.6024 17.2577 69.9661 16.5907 69.4907 15.686C69.0307 14.766 68.8007 13.57 68.8007 12.098C68.8007 10.6413 69.0537 9.44533 69.5597 8.51C70.0657 7.57467 70.7557 6.88467 71.6297 6.44C72.5037 5.98 73.4851 5.75 74.5737 5.75ZM88.0999 5.75C88.6212 5.75 89.0352 5.865 89.3419 6.095C89.6486 6.30967 89.8709 6.59333 90.0089 6.946C90.1469 7.28333 90.2159 7.62067 90.2159 7.958C90.2159 8.58667 90.0319 9.09267 89.6639 9.476C89.3112 9.85933 88.8436 10.051 88.2609 10.051C87.6476 10.051 87.1799 9.913 86.8579 9.637C86.5359 9.34567 86.3749 8.96233 86.3749 8.487C86.3749 8.01167 86.4746 7.62067 86.6739 7.314C86.8886 7.00733 87.1492 6.74667 87.4559 6.532C87.2259 6.50134 87.0036 6.532 86.7889 6.624C86.5436 6.68534 86.3136 6.80033 86.0989 6.969C85.8842 7.13767 85.7002 7.337 85.5469 7.567C85.3936 7.797 85.2709 8.05 85.1789 8.326C85.1022 8.58667 85.0639 8.855 85.0639 9.131V15.617C85.0639 16.353 85.2249 16.8513 85.5469 17.112C85.8842 17.3727 86.4132 17.503 87.1339 17.503V17.986C86.7812 17.9707 86.2599 17.9553 85.5699 17.94C84.8799 17.9093 84.1669 17.894 83.4309 17.894C82.7716 17.894 82.1046 17.9093 81.4299 17.94C80.7706 17.9553 80.2799 17.9707 79.9579 17.986V17.503C80.4639 17.503 80.8166 17.388 81.0159 17.158C81.2306 16.928 81.3379 16.491 81.3379 15.847V8.579C81.3379 7.889 81.2382 7.383 81.0389 7.061C80.8396 6.72367 80.4792 6.555 79.9579 6.555V6.072C80.4486 6.118 80.9239 6.141 81.3839 6.141C82.0739 6.141 82.7256 6.118 83.3389 6.072C83.9676 6.01067 84.5426 5.92633 85.0639 5.819V7.705C85.2479 7.30633 85.4856 6.96133 85.7769 6.67C86.0836 6.37867 86.4286 6.15633 86.8119 6.003C87.2106 5.83434 87.6399 5.75 88.0999 5.75Z" fill="#5C3D2E"/>
<path d="M105.573 17.986V17.526C106.048 17.4953 106.401 17.434 106.631 17.342C106.876 17.25 107.037 17.066 107.114 16.79C107.206 16.514 107.252 16.1 107.252 15.548V4.14C107.252 3.57267 107.206 3.15867 107.114 2.898C107.037 2.622 106.876 2.438 106.631 2.346C106.401 2.23867 106.048 2.17733 105.573 2.162V1.702C106.017 1.71734 106.592 1.73267 107.298 1.748C108.003 1.76333 108.708 1.771 109.414 1.771C110.165 1.771 110.863 1.76333 111.507 1.748C112.166 1.73267 112.695 1.71734 113.094 1.702V2.162C112.618 2.17733 112.258 2.23867 112.013 2.346C111.767 2.438 111.606 2.622 111.53 2.898C111.453 3.15867 111.415 3.57267 111.415 4.14V15.548C111.415 16.1 111.453 16.514 111.53 16.79C111.622 17.066 111.783 17.25 112.013 17.342C112.258 17.434 112.618 17.4953 113.094 17.526V17.986C112.695 17.9553 112.166 17.94 111.507 17.94C110.863 17.9247 110.165 17.917 109.414 17.917C108.708 17.917 108.003 17.9247 107.298 17.94C106.592 17.94 106.017 17.9553 105.573 17.986ZM95.7747 17.986V17.526C96.25 17.4953 96.6027 17.434 96.8327 17.342C97.078 17.25 97.239 17.066 97.3157 16.79C97.4077 16.514 97.4537 16.1 97.4537 15.548V4.14C97.4537 3.57267 97.4077 3.15867 97.3157 2.898C97.239 2.622 97.078 2.438 96.8327 2.346C96.6027 2.23867 96.25 2.17733 95.7747 2.162V1.702C96.1887 1.71734 96.7407 1.73267 97.4307 1.748C98.1207 1.76333 98.8567 1.771 99.6387 1.771C100.313 1.771 100.98 1.76333 101.64 1.748C102.314 1.73267 102.866 1.71734 103.296 1.702V2.162C102.82 2.17733 102.46 2.23867 102.215 2.346C101.969 2.438 101.808 2.622 101.732 2.898C101.655 3.15867 101.617 3.57267 101.617 4.14V15.548C101.617 16.1 101.655 16.514 101.732 16.79C101.824 17.066 101.985 17.25 102.215 17.342C102.46 17.434 102.82 17.4953 103.296 17.526V17.986C102.866 17.9553 102.314 17.94 101.64 17.94C100.98 17.9247 100.313 17.917 99.6387 17.917C98.8567 17.917 98.1207 17.9247 97.4307 17.94C96.7407 17.94 96.1887 17.9553 95.7747 17.986ZM99.8917 10.028V9.568H108.977V10.028H99.8917ZM117.316 18.147C116.611 18.147 116.028 18.0167 115.568 17.756C115.108 17.48 114.771 17.1197 114.556 16.675C114.342 16.2303 114.234 15.755 114.234 15.249C114.234 14.605 114.38 14.076 114.671 13.662C114.978 13.248 115.369 12.9183 115.844 12.673C116.32 12.4123 116.818 12.1977 117.339 12.029C117.861 11.8603 118.359 11.6993 118.834 11.546C119.31 11.3773 119.693 11.1857 119.984 10.971C120.276 10.741 120.421 10.4497 120.421 10.097V8.188C120.421 7.85067 120.368 7.53634 120.26 7.245C120.168 6.93833 119.992 6.693 119.731 6.509C119.486 6.30967 119.141 6.21 118.696 6.21C118.42 6.21 118.152 6.24833 117.891 6.325C117.631 6.40167 117.401 6.52433 117.201 6.693C117.692 6.86167 118.052 7.11467 118.282 7.452C118.528 7.78933 118.65 8.165 118.65 8.579C118.65 9.14634 118.451 9.59867 118.052 9.936C117.669 10.258 117.209 10.419 116.672 10.419C116.09 10.419 115.637 10.235 115.315 9.867C115.009 9.499 114.855 9.05434 114.855 8.533C114.855 8.073 114.97 7.68967 115.2 7.383C115.43 7.061 115.768 6.76967 116.212 6.509C116.657 6.24833 117.194 6.05667 117.822 5.934C118.451 5.81133 119.118 5.75 119.823 5.75C120.544 5.75 121.203 5.82667 121.801 5.98C122.415 6.118 122.936 6.40167 123.365 6.831C123.703 7.18367 123.917 7.613 124.009 8.119C124.101 8.625 124.147 9.269 124.147 10.051V16.261C124.147 16.6443 124.178 16.9127 124.239 17.066C124.316 17.204 124.431 17.273 124.584 17.273C124.722 17.273 124.853 17.2347 124.975 17.158C125.098 17.0813 125.221 16.997 125.343 16.905L125.596 17.296C125.259 17.572 124.86 17.7867 124.4 17.94C123.94 18.078 123.442 18.147 122.905 18.147C122.292 18.147 121.809 18.0703 121.456 17.917C121.119 17.7483 120.874 17.526 120.72 17.25C120.582 16.974 120.506 16.6673 120.49 16.33C120.153 16.882 119.731 17.3267 119.225 17.664C118.719 17.986 118.083 18.147 117.316 18.147ZM119.225 16.491C119.471 16.491 119.685 16.445 119.869 16.353C120.069 16.2457 120.253 16.0693 120.421 15.824V11.04C120.299 11.2547 120.13 11.4617 119.915 11.661C119.716 11.845 119.501 12.0367 119.271 12.236C119.041 12.42 118.819 12.627 118.604 12.857C118.405 13.087 118.236 13.363 118.098 13.685C117.976 13.9917 117.914 14.3673 117.914 14.812C117.914 15.41 118.037 15.8393 118.282 16.1C118.528 16.3607 118.842 16.491 119.225 16.491ZM137.273 6.072V6.555C136.982 6.647 136.706 6.83867 136.445 7.13C136.185 7.42133 135.924 7.92734 135.663 8.648L132.42 18.009C132.114 17.9783 131.807 17.963 131.5 17.963C131.194 17.963 130.879 17.9783 130.557 18.009L126.509 7.843C126.279 7.26033 126.042 6.9 125.796 6.762C125.551 6.624 125.344 6.555 125.175 6.555V6.072C125.727 6.10267 126.302 6.13333 126.9 6.164C127.498 6.17934 128.15 6.187 128.855 6.187C129.331 6.187 129.829 6.17934 130.35 6.164C130.887 6.13333 131.385 6.10267 131.845 6.072V6.555C131.554 6.555 131.286 6.57033 131.04 6.601C130.81 6.63167 130.642 6.716 130.534 6.854C130.442 6.992 130.45 7.245 130.557 7.613L133.179 14.766L132.926 15.157L134.467 10.718C134.789 9.78267 134.927 9.016 134.881 8.418C134.835 7.82 134.659 7.36767 134.352 7.061C134.061 6.75433 133.67 6.58567 133.179 6.555V6.072C133.409 6.08733 133.662 6.10267 133.938 6.118C134.23 6.13333 134.513 6.14867 134.789 6.164C135.081 6.164 135.318 6.164 135.502 6.164C135.794 6.164 136.116 6.15633 136.468 6.141C136.821 6.12567 137.089 6.10267 137.273 6.072ZM143.439 5.75C144.788 5.75 145.846 6.14867 146.613 6.946C147.38 7.74333 147.763 9.05433 147.763 10.879H140.38L140.357 10.442H144.635C144.666 9.69067 144.635 9.00067 144.543 8.372C144.451 7.728 144.298 7.21434 144.083 6.831C143.884 6.44767 143.615 6.256 143.278 6.256C142.818 6.256 142.427 6.58567 142.105 7.245C141.783 7.90433 141.584 9.02367 141.507 10.603L141.599 10.764C141.568 10.9327 141.553 11.109 141.553 11.293C141.553 11.4617 141.553 11.6457 141.553 11.845C141.553 12.903 141.691 13.7463 141.967 14.375C142.258 15.0037 142.619 15.4483 143.048 15.709C143.477 15.9697 143.922 16.1 144.382 16.1C144.643 16.1 144.934 16.0617 145.256 15.985C145.578 15.9083 145.915 15.7473 146.268 15.502C146.621 15.2567 146.958 14.8963 147.28 14.421L147.671 14.559C147.502 15.157 147.211 15.7473 146.797 16.33C146.398 16.8973 145.885 17.3727 145.256 17.756C144.627 18.124 143.868 18.308 142.979 18.308C141.967 18.308 141.062 18.101 140.265 17.687C139.468 17.2577 138.831 16.5907 138.356 15.686C137.896 14.766 137.666 13.57 137.666 12.098C137.666 10.6413 137.919 9.44533 138.425 8.51C138.931 7.57467 139.621 6.88467 140.495 6.44C141.369 5.98 142.35 5.75 143.439 5.75ZM157.632 5.75C158.307 5.75 158.843 5.83434 159.242 6.003C159.656 6.17167 159.97 6.38633 160.185 6.647C160.43 6.93833 160.607 7.314 160.714 7.774C160.837 8.234 160.898 8.855 160.898 9.637V15.847C160.898 16.491 160.998 16.928 161.197 17.158C161.412 17.388 161.772 17.503 162.278 17.503V17.986C161.971 17.9707 161.511 17.9553 160.898 17.94C160.3 17.9093 159.717 17.894 159.15 17.894C158.521 17.894 157.916 17.9093 157.333 17.94C156.75 17.9553 156.313 17.9707 156.022 17.986V17.503C156.451 17.503 156.75 17.388 156.919 17.158C157.088 16.928 157.172 16.491 157.172 15.847V8.533C157.172 8.18033 157.134 7.88133 157.057 7.636C156.98 7.37534 156.85 7.18367 156.666 7.061C156.482 6.923 156.221 6.854 155.884 6.854C155.531 6.854 155.202 6.946 154.895 7.13C154.604 7.314 154.366 7.57467 154.182 7.912C154.013 8.234 153.929 8.602 153.929 9.016V15.847C153.929 16.491 154.013 16.928 154.182 17.158C154.351 17.388 154.65 17.503 155.079 17.503V17.986C154.788 17.9707 154.366 17.9553 153.814 17.94C153.262 17.9093 152.702 17.894 152.135 17.894C151.506 17.894 150.878 17.9093 150.249 17.94C149.62 17.9553 149.145 17.9707 148.823 17.986V17.503C149.329 17.503 149.682 17.388 149.881 17.158C150.096 16.928 150.203 16.491 150.203 15.847V8.579C150.203 7.889 150.103 7.383 149.904 7.061C149.705 6.72367 149.344 6.555 148.823 6.555V6.072C149.314 6.118 149.789 6.141 150.249 6.141C150.939 6.141 151.591 6.118 152.204 6.072C152.833 6.01067 153.408 5.92633 153.929 5.819V7.682C154.297 6.97667 154.795 6.47833 155.424 6.187C156.068 5.89567 156.804 5.75 157.632 5.75Z" fill="#D8A7A7"/>
</svg>
